<svg id="fork-spoon" xmlns="http://www.w3.org/2000/svg" width="37.344" height="48.906" viewBox="0 0 37.344 48.906">
  <defs>
    <style>
      .cls-1 {
        fill: #4338ca;
        fill-rule: evenodd;
      }
    </style>
  </defs>
  <path id="spoon" class="cls-1" d="M587.834,101.008a6.4,6.4,0,0,0,1.144-3.777c0.043-4.42-5.183-10.244-9.351-11.714s-6.042-.159-6.086,4.261,3.642,11.322,7.81,12.793a6.393,6.393,0,0,0,3.94.217l17.432,28.748a4.038,4.038,0,0,0,6.163-4.315Z" transform="translate(-572.844 -84.688)"/>
  <path id="fork" class="cls-1" d="M593.93,102.451a7.506,7.506,0,0,1-1.144-3.969l9.383-13.4a0.958,0.958,0,1,1,1.57,1.1l-6.071,8.671a0.958,0.958,0,1,0,1.57,1.1l6.072-8.671a0.958,0.958,0,1,1,1.57,1.1l-6.071,8.671a0.958,0.958,0,1,0,1.57,1.1l6.072-8.671a0.958,0.958,0,1,1,1.57,1.1l-9.383,13.4a7.518,7.518,0,0,1-4.121.283L579.239,132.87a4.157,4.157,0,0,1-6.282-4.4Z" transform="translate(-572.844 -84.688)"/>
</svg>
