<svg xmlns="http://www.w3.org/2000/svg" width="74.625" height="20.094" viewBox="0 0 74.625 20.094">
  <defs>
    <style>
      .cls-1 {
        fill: #fff;
        fill-rule: evenodd;
      }
    </style>
  </defs>
  <path id="Nosh" class="cls-1" d="M44.531,41.74c-0.019.019-.057,0.019-0.077,0.038-0.076-.134-0.172-0.267-0.248-0.42-1.375-2.426-2.025-3.648-3.343-5.883-1.815-3.075-5.768-2.559-7.583-1.012-0.229,2.254-.172,10.62-0.019,15.338,0.076,2.292,3.8,4.393,6.934,1.834,0.057-2.731-.115-4.011-0.172-6.3,0.038,0,.1-0.019.134-0.019a3.376,3.376,0,0,1,.229.325c0.439,0.688,1.757,3.247,2.827,4.718,2.349,3.19,6.475,2.827,8.118,1.184,0.287-3.858.115-12.645,0.115-14.975,0-3.228-4.584-4.794-6.914-1.967V41.74Zm17.585-8.748c-5.253.019-7.793,2.884-9,5.578a12.02,12.02,0,0,0-.478,7.258,8.327,8.327,0,0,0,4.412,5.9,11.136,11.136,0,0,0,7.984.859A8.667,8.667,0,0,0,71.7,46.362a11.455,11.455,0,0,0-.344-7.449C70.788,37.4,68.629,32.953,62.116,32.992Zm0.1,6.838c1.356,0,2.579,1.242,2.445,3.4-0.115,2.158-1.356,2.941-2.369,3-0.993.076-2.464-.707-2.6-2.922C59.537,41.033,60.8,39.83,62.211,39.83Zm23.334,1.891A14.217,14.217,0,0,0,80.6,40.5c-0.974-.134-1.261-0.382-1.261-0.8,0.038-1.681,4.374-1.471,5.769.248,2.2-.516,3.954-3.763.611-5.979-1.643-1.089-5.138-1.413-7.66-.726-4.584,1.222-5.234,4.985-4.985,6.59,0.592,3.591,3.935,5.348,7.029,5.578,1.433,0.1,1.452.325,1.242,1.089-0.306,1.165-2.235.974-4.928-.363-3.114-1.547-5.253,2.369-3.4,4.7,3.438,2.827,9.359,2.349,11.881,1.337C88.487,50.7,90.4,44.72,85.545,41.721ZM96.9,39.983a27.693,27.693,0,0,0-.057-3.687c-0.287-2.9-4.584-3.954-7.125-1.853-0.229,3.476,0,12.779.153,14.88,0.325,4.7,6.036,3.648,7.087,2.693V46.152h3.572c0,0.821.038,3.018,0.172,4.011,0.439,3.476,6.132,2.789,6.991,1.834,0.038-.439.057-1.356,0.057-2.025,0.02-4.852.02-10.945,0.02-12.855,0-3.648-4.661-4.833-7.011-2.961-0.171,1.031-.133,3.687-0.191,5.826H96.9Z" transform="translate(-33.156 -32.875)"/>
</svg>
