<svg xmlns="http://www.w3.org/2000/svg" width="310.688" height="83.344" viewBox="0 0 310.688 83.344">
  <defs>
    <style>
      .cls-1 {
        fill: #fff;
        fill-rule: evenodd;
      }
    </style>
  </defs>
  <path id="logo-solid" class="cls-1" d="M516.782,248.33c-0.079.078-.238,0.078-0.321,0.157-0.316-.556-0.716-1.107-1.032-1.742-5.723-10.064-8.429-15.134-13.915-24.406-7.554-12.756-24.008-10.615-31.562-4.2-0.953,9.351-.716,44.057-0.079,63.629,0.316,9.509,15.816,18.225,28.861,7.609,0.237-11.33-.479-16.64-0.716-26.136,0.158,0,.416-0.078.558-0.078a13.942,13.942,0,0,1,.953,1.348c1.827,2.854,7.313,13.47,11.767,19.572,9.777,13.234,26.951,11.728,33.789,4.912,1.195-16,.479-52.457.479-62.123,0-13.392-19.08-19.888-28.778-8.16V248.33h0Zm73.194-36.291c-21.865.079-32.437,11.964-37.461,23.14a49.717,49.717,0,0,0-1.99,30.11,34.562,34.562,0,0,0,18.364,24.476,46.492,46.492,0,0,0,33.232,3.563A36.027,36.027,0,0,0,629.867,267.5a47.373,47.373,0,0,0-1.432-30.9C626.071,230.325,617.085,211.877,589.976,212.039Zm97.539,36.212a59.336,59.336,0,0,0-20.6-5.065c-4.054-.556-5.248-1.585-5.248-3.319,0.158-6.974,18.206-6.1,24.012,1.029,9.157-2.141,16.458-15.611,2.543-24.8-6.839-4.518-21.386-5.862-31.883-3.012-19.08,5.069-21.785,20.68-20.749,27.338,2.464,14.9,16.379,22.187,29.257,23.141,5.964,0.415,6.043,1.348,5.169,4.517-1.273,4.833-9.3,4.041-20.512-1.506-12.961-6.417-21.864,9.828-14.151,19.5,14.31,11.728,38.955,9.745,49.452,5.547,14.938-6.115,22.9-30.923,2.693-43.364h0.021Zm47.242-7.21a114.665,114.665,0,0,0-.238-15.3c-1.194-12.03-19.08-16.4-29.656-7.687-0.953,14.42,0,53.014.637,61.729,1.353,19.5,25.123,15.134,29.5,11.172V266.633h14.868c0,3.406.158,12.52,0.716,16.639,1.827,14.42,25.523,11.57,29.1,7.608,0.158-1.821.237-5.625,0.237-8.4C780,262.351,780,237.075,780,229.151c0-15.133-19.4-20.049-29.182-12.283-0.712,4.277-.554,15.3-0.795,24.169H734.757v0Z" transform="translate(-469.312 -211.562)"/>
</svg>
