<?xml version="1.0" encoding="utf-8"?>
<!-- Generator: Adobe Illustrator 25.4.1, SVG Export Plug-In . SVG Version: 6.00 Build 0)  -->
<svg version="1.1" id="Layer_1" xmlns="http://www.w3.org/2000/svg" xmlns:xlink="http://www.w3.org/1999/xlink" x="0px" y="0px"
	 viewBox="0 0 402.5 526.5" style="enable-background:new 0 0 402.5 526.5;" xml:space="preserve">
<style type="text/css">
	.st0{fill:#D3D3D3;}
</style>
<g>
	<path class="st0" d="M201.3,281.5c-53.4,0.1-104.5,21.3-142.2,59s-59,88.9-59,142.2v17.5c0,7,2.8,13.6,7.7,18.6
		c4.9,4.9,11.6,7.7,18.6,7.7h350c7,0,13.6-2.8,18.6-7.7c4.9-4.9,7.7-11.6,7.7-18.6v-17.5c-0.1-53.4-21.3-104.5-59-142.2
		C305.8,302.8,254.6,281.6,201.3,281.5L201.3,281.5z"/>
	<path class="st0" d="M306.3,159c0,58-47,105-105,105s-105-47-105-105s47-105,105-105S306.3,101,306.3,159"/>
</g>
</svg>
