<?xml version="1.0" standalone="no"?>
<!DOCTYPE svg PUBLIC "-//W3C//DTD SVG 20010904//EN"
 "http://www.w3.org/TR/2001/REC-SVG-20010904/DTD/svg10.dtd">
<svg version="1.0" xmlns="http://www.w3.org/2000/svg"
 width="260.000000pt" height="260.000000pt" viewBox="0 0 260.000000 260.000000"
 preserveAspectRatio="xMidYMid meet">
<metadata>
Created by potrace 1.14, written by Peter Selinger 2001-2017
</metadata>
<g transform="translate(0.000000,260.000000) scale(0.100000,-0.100000)"
fill="#000000" stroke="none">
<path d="M0 1300 l0 -1300 1300 0 1300 0 0 1300 0 1300 -1300 0 -1300 0 0
-1300z m1972 1000 c122 -37 218 -125 254 -232 17 -49 18 -108 19 -773 0 -396
-4 -759 -8 -806 l-9 -86 -56 -37 c-80 -53 -177 -80 -287 -80 -164 -1 -295 50
-412 159 -79 73 -127 142 -284 415 -58 101 -112 186 -119 188 -11 4 -12 -15
-7 -94 4 -55 10 -201 13 -325 l7 -227 -55 -36 c-74 -49 -149 -76 -230 -83
-177 -15 -350 74 -415 215 l-25 54 -10 522 c-7 339 -7 624 0 814 11 334 -1
300 117 358 74 36 194 64 273 64 60 0 165 -26 225 -57 111 -56 147 -106 419
-589 72 -128 135 -231 140 -228 5 3 8 171 8 372 l-2 367 44 39 c109 97 260
129 400 86z"/>
</g>
</svg>
