<?xml version="1.0" encoding="utf-8"?>
<!-- Generator: Adobe Illustrator 25.4.1, SVG Export Plug-In . SVG Version: 6.00 Build 0)  -->
<svg version="1.1" id="Layer_1" xmlns="http://www.w3.org/2000/svg" xmlns:xlink="http://www.w3.org/1999/xlink" x="0px" y="0px"
	 viewBox="0 0 560 437.5" style="enable-background:new 0 0 560 437.5;" xml:space="preserve">
<style type="text/css">
	.st0{fill:#1F1F1F;}
</style>
<g>
	<path class="st0" d="M26.3,131.2h439.1l-36.6,33l0.1,0.1c-5.3,4.8-8.8,11.7-8.8,19.4c0,14.5,11.8,26.2,26.2,26.2
		c6.7,0,12.8-2.6,17.5-6.8l0.1,0.1l87.5-78.7l-0.1-0.1c5.3-4.8,8.8-11.7,8.8-19.4s-3.4-14.6-8.8-19.4l0.1-0.1L463.8,6.7l-0.1,0.1
		C459.1,2.6,453,0,446.2,0C431.7,0,420,11.8,420,26.2c0,7.7,3.4,14.6,8.8,19.4l-0.1,0.1l36.7,33H26.2C11.8,78.7,0,90.5,0,105
		S11.8,131.2,26.3,131.2L26.3,131.2z M533.8,306.2H94.7l36.7-33l-0.1-0.1c5.3-4.8,8.8-11.7,8.8-19.5c0-14.5-11.8-26.2-26.2-26.2
		c-6.8,0-12.8,2.6-17.5,6.8l-0.1-0.1L8.7,313l0.1,0.1C3.4,317.9,0,324.8,0,332.5s3.4,14.6,8.8,19.5L8.7,352l87.5,78.8l0.1-0.1
		c4.7,4.2,10.8,6.8,17.5,6.8c14.5,0,26.2-11.8,26.2-26.2c0-7.7-3.4-14.6-8.8-19.5l0.1-0.1l-36.7-33h439.1
		c14.5,0,26.2-11.8,26.2-26.2S548.3,306.2,533.8,306.2L533.8,306.2z"/>
</g>
</svg>
